<svg width="194" height="68" viewBox="0 0 194 68" fill="none" xmlns="http://www.w3.org/2000/svg">
<path d="M4.31138 21.392C4.31138 22.9493 4.65271 24.2293 5.33538 25.232C6.01804 26.2133 7.13804 26.704 8.69538 26.704C9.33538 26.704 9.99671 26.6187 10.6794 26.448C11.3834 26.2773 12.2474 25.9893 13.2714 25.584L14.4554 28.912C13.3034 29.424 12.2367 29.7867 11.2554 30C10.2954 30.2133 9.36738 30.32 8.47138 30.32C6.67938 30.32 5.17538 29.936 3.95938 29.168C2.76471 28.4 1.86871 27.344 1.27138 26C0.674042 24.656 0.375375 23.12 0.375375 21.392V16.816C0.375375 15.088 0.674042 13.552 1.27138 12.208C1.86871 10.864 2.76471 9.81867 3.95938 9.072C5.17538 8.304 6.67938 7.92 8.47138 7.92C9.34604 7.92 10.2527 8.02667 11.1914 8.24C12.13 8.432 13.154 8.77333 14.2634 9.264L13.0794 12.656C12.098 12.2507 11.2767 11.9627 10.6154 11.792C9.95404 11.6213 9.31404 11.536 8.69538 11.536C7.13804 11.536 6.01804 12.0267 5.33538 13.008C4.65271 13.9893 4.31138 15.2587 4.31138 16.816V21.392ZM33.6969 16.816V21.392C33.6969 24.1653 33.0035 26.352 31.6169 27.952C30.2302 29.5307 28.2035 30.32 25.5369 30.32C22.8489 30.32 20.8115 29.5307 19.4249 27.952C18.0595 26.352 17.3769 24.1653 17.3769 21.392V16.816C17.3769 14.0427 18.0595 11.8667 19.4249 10.288C20.8115 8.70933 22.8489 7.92 25.5369 7.92C28.2035 7.92 30.2302 8.70933 31.6169 10.288C33.0035 11.8667 33.6969 14.0427 33.6969 16.816ZM29.7609 16.816C29.7609 15.0667 29.4195 13.7547 28.7369 12.88C28.0542 11.984 26.9875 11.536 25.5369 11.536C24.0862 11.536 23.0195 11.984 22.3369 12.88C21.6542 13.7547 21.3129 15.0667 21.3129 16.816V21.392C21.3129 23.1413 21.6542 24.464 22.3369 25.36C23.0195 26.256 24.0862 26.704 25.5369 26.704C26.9875 26.704 28.0542 26.256 28.7369 25.36C29.4195 24.464 29.7609 23.1413 29.7609 21.392V16.816ZM38.7736 30V8.24H42.2936C43.979 10.4373 45.579 12.7627 47.0936 15.216C48.6083 17.648 49.9843 20.1547 51.2216 22.736L50.9336 16.24V8.24H54.6136V30H51.0936C49.7283 27.312 48.3096 24.6133 46.8376 21.904C45.387 19.1733 43.8403 16.6027 42.1976 14.192L42.4536 21.68V30H38.7736ZM65.3534 26.768C67.828 26.768 69.0654 25.8507 69.0654 24.016C69.0654 23.2693 68.8734 22.6827 68.4894 22.256C68.1267 21.8293 67.444 21.456 66.4414 21.136L63.8174 20.272C60.6814 19.248 59.1134 17.1893 59.1134 14.096C59.1134 12.304 59.668 10.832 60.7774 9.68C61.908 8.50666 63.668 7.92 66.0574 7.92C67.06 7.92 68.052 8.03733 69.0334 8.272C70.0147 8.48533 71.06 8.83733 72.1694 9.328L70.9854 12.624C69.9614 12.2187 69.0867 11.9307 68.3614 11.76C67.6574 11.568 66.932 11.472 66.1854 11.472C65.204 11.472 64.4254 11.6533 63.8494 12.016C63.2947 12.3573 63.0174 12.9867 63.0174 13.904C63.0174 14.5867 63.2094 15.152 63.5934 15.6C63.9987 16.0267 64.66 16.3893 65.5774 16.688L68.2014 17.552C69.78 18.0853 70.964 18.864 71.7534 19.888C72.564 20.8907 72.9694 22.224 72.9694 23.888C72.9694 25.808 72.3614 27.3653 71.1454 28.56C69.9294 29.7333 68.02 30.32 65.4174 30.32C64.3934 30.32 63.3267 30.2027 62.2174 29.968C61.1294 29.712 59.9347 29.2853 58.6334 28.688L59.8174 25.392C61.012 25.904 62.0254 26.2667 62.8574 26.48C63.7107 26.672 64.5427 26.768 65.3534 26.768ZM76.6679 8.24H80.6039V22.192C80.6039 23.6 80.9132 24.7093 81.5319 25.52C82.1505 26.3093 83.1425 26.704 84.5079 26.704C85.8732 26.704 86.8652 26.3093 87.4839 25.52C88.1025 24.7093 88.4119 23.6 88.4119 22.192V8.24H92.3479V22.192C92.3479 24.6453 91.6972 26.6187 90.3959 28.112C89.0945 29.584 87.1319 30.32 84.5079 30.32C81.8625 30.32 79.8892 29.584 78.5879 28.112C77.3079 26.6187 76.6679 24.6453 76.6679 22.192V8.24ZM110.411 26.32V30H97.8674V8.24H101.707V26.32H110.411ZM108.775 11.92V8.24H124.775V11.92H118.695V30H114.855V11.92H108.775ZM143.603 16.816V21.392C143.603 24.1653 142.91 26.352 141.523 27.952C140.136 29.5307 138.11 30.32 135.443 30.32C132.755 30.32 130.718 29.5307 129.331 27.952C127.966 26.352 127.283 24.1653 127.283 21.392V16.816C127.283 14.0427 127.966 11.8667 129.331 10.288C130.718 8.70933 132.755 7.92 135.443 7.92C138.11 7.92 140.136 8.70933 141.523 10.288C142.91 11.8667 143.603 14.0427 143.603 16.816ZM139.667 16.816C139.667 15.0667 139.326 13.7547 138.643 12.88C137.96 11.984 136.894 11.536 135.443 11.536C133.992 11.536 132.926 11.984 132.243 12.88C131.56 13.7547 131.219 15.0667 131.219 16.816V21.392C131.219 23.1413 131.56 24.464 132.243 25.36C132.926 26.256 133.992 26.704 135.443 26.704C136.894 26.704 137.96 26.256 138.643 25.36C139.326 24.464 139.667 23.1413 139.667 21.392V16.816ZM152.52 22V30H148.68V8.24H155.944C158.141 8.24 159.827 8.80533 161 9.936C162.195 11.0453 162.792 12.5387 162.792 14.416V15.792C162.792 17.0293 162.525 18.1173 161.992 19.056C161.459 19.9947 160.691 20.7093 159.688 21.2C161.437 24.1867 162.931 27.12 164.168 30H159.784C158.717 27.3333 157.448 24.6667 155.976 22H152.52ZM155.944 11.76H152.52V18.48H155.944C156.883 18.48 157.597 18.2453 158.088 17.776C158.6 17.2853 158.856 16.624 158.856 15.792V14.416C158.856 13.6053 158.6 12.9653 158.088 12.496C157.597 12.0053 156.883 11.76 155.944 11.76ZM172.02 30H168.18V8.24H172.02V30ZM171.732 5.936H168.5L171.572 0.623999L175.028 2.096L171.732 5.936ZM189.608 30L188.264 25.744H180.808L179.464 30H175.656L182.92 8.24H186.312L193.608 30H189.608ZM182.888 19.088L181.896 22.224H187.144L186.152 19.088L184.552 13.584L182.888 19.088Z" fill="white"/>
<path d="M32.342 68L30.998 63.744H23.542L22.198 68H18.39L25.654 46.24H29.046L36.342 68H32.342ZM25.622 57.088L24.63 60.224H29.878L28.886 57.088L27.286 51.584L25.622 57.088ZM44.1688 46.24L50.2488 61.12L56.2968 46.24H60.4888V68H56.8088V59.68L57.2888 52.064L51.8808 65.44H48.4568L43.1768 52.032L43.6568 59.68V68H39.9768V46.24H44.1688ZM66.508 68V46.24H73.132C74.7533 46.24 76.0333 46.4747 76.972 46.944C77.932 47.4133 78.6147 48.0747 79.02 48.928C79.4467 49.7813 79.66 50.784 79.66 51.936V52.832C79.66 54.5173 78.9347 55.808 77.484 56.704C78.508 57.1093 79.2867 57.696 79.82 58.464C80.3533 59.232 80.62 60.1493 80.62 61.216V62.112C80.62 63.2853 80.4067 64.32 79.98 65.216C79.5533 66.0907 78.8493 66.7733 77.868 67.264C76.8867 67.7547 75.5747 68 73.932 68H66.508ZM73.132 49.76H70.348V55.2H73.132C73.9853 55.2 74.6253 55.008 75.052 54.624C75.5 54.2187 75.724 53.6747 75.724 52.992V51.936C75.724 51.2533 75.5 50.72 75.052 50.336C74.6253 49.952 73.9853 49.76 73.132 49.76ZM73.932 58.72H70.348V64.48H73.932C74.828 64.48 75.5107 64.2667 75.98 63.84C76.4493 63.4133 76.684 62.8373 76.684 62.112V61.056C76.684 60.3307 76.4493 59.7653 75.98 59.36C75.5107 58.9333 74.828 58.72 73.932 58.72ZM89.0668 68H85.2268V46.24H89.0668V68ZM107.679 64.32V68H95.0705V46.24H107.359V49.92H98.9105V55.136H106.399V58.816H98.9105V64.32H107.679ZM112.227 68V46.24H115.747C117.432 48.4373 119.032 50.7627 120.547 53.216C122.061 55.648 123.437 58.1547 124.675 60.736L124.387 54.24V46.24H128.067V68H124.547C123.181 65.312 121.763 62.6133 120.291 59.904C118.84 57.1733 117.293 54.6027 115.651 52.192L115.907 59.68V68H112.227ZM131.479 49.92V46.24H147.479V49.92H141.399V68H137.559V49.92H131.479ZM160.405 68L159.061 63.744H151.605L150.261 68H146.453L153.717 46.24H157.109L164.405 68H160.405ZM153.685 57.088L152.693 60.224H157.941L156.949 57.088L155.349 51.584L153.685 57.088ZM180.583 64.32V68H168.039V46.24H171.879V64.32H180.583Z" fill="#027D0A"/>
</svg>
